<?xml version="1.0" encoding="UTF-8" standalone="no"?>
<!-- Created with Inkscape (http://www.inkscape.org/) -->

<svg
   xmlns:dc="http://purl.org/dc/elements/1.1/"
   xmlns:cc="http://creativecommons.org/ns#"
   xmlns:rdf="http://www.w3.org/1999/02/22-rdf-syntax-ns#"
   xmlns:svg="http://www.w3.org/2000/svg"
   xmlns="http://www.w3.org/2000/svg"
   xmlns:sodipodi="http://sodipodi.sourceforge.net/DTD/sodipodi-0.dtd"
   xmlns:inkscape="http://www.inkscape.org/namespaces/inkscape"
   width="248mm"
   height="159mm"
   viewBox="0 0 248 159"
   version="1.1"
   id="svg4710"
   inkscape:version="0.92.5 (2060ec1f9f, 2020-04-08)"
   sodipodi:docname="submarine.svg">
  <defs
     id="defs4704" />
  <sodipodi:namedview
     id="base"
     pagecolor="#ffffff"
     bordercolor="#666666"
     borderopacity="1.0"
     inkscape:pageopacity="0.0"
     inkscape:pageshadow="2"
     inkscape:zoom="0.35"
     inkscape:cx="-1697.1429"
     inkscape:cy="560"
     inkscape:document-units="mm"
     inkscape:current-layer="layer1"
     showgrid="false"
     inkscape:window-width="3696"
     inkscape:window-height="2018"
     inkscape:window-x="144"
     inkscape:window-y="68"
     inkscape:window-maximized="1" />
  <metadata
     id="metadata4707">
    <rdf:RDF>
      <cc:Work
         rdf:about="">
        <dc:format>image/svg+xml</dc:format>
        <dc:type
           rdf:resource="http://purl.org/dc/dcmitype/StillImage" />
        <dc:title></dc:title>
      </cc:Work>
    </rdf:RDF>
  </metadata>
  <g
     inkscape:label="Layer 1"
     inkscape:groupmode="layer"
     id="layer1"
     transform="translate(0,-138)">
    <g
       transform="matrix(0.26458333,0,0,0.26458333,-79.749186,85.004515)"
       id="g90">
      <g
         id="g36">
        <path
           style="fill:#ffffff"
           inkscape:connector-curvature="0"
           d="m 1208,586.4 c -3.1,0 -5.6,-2.5 -5.6,-5.6 v -70.4 c 0,-3.1 2.5,-5.6 5.6,-5.6 3.1,0 5.6,2.5 5.6,5.6 v 70.4 c 0.1,3.1 -2.5,5.6 -5.6,5.6 z"
           id="path34" />
      </g>
      <g
         id="g40">
        <path
           style="fill:#ffffff"
           inkscape:connector-curvature="0"
           d="m 1208,694.8 c -3.1,0 -5.6,-2.5 -5.6,-5.6 v -70.4 c 0,-3.1 2.5,-5.6 5.6,-5.6 3.1,0 5.6,2.5 5.6,5.6 v 70.4 c 0.1,3.1 -2.5,5.6 -5.6,5.6 z"
           id="path38" />
      </g>
      <rect
         style="fill:#939598"
         x="957"
         y="565.09998"
         width="69.400002"
         height="69.400002"
         id="rect42" />
      <g
         id="g52">
        <path
           style="fill:#ff8078"
           inkscape:connector-curvature="0"
           d="m 328.4,599.8 v 14.1 c 0,74.6 60.5,135.1 135.1,135.1 V 599.8 Z"
           id="path44" />
        <path
           style="fill:#ffffff"
           inkscape:connector-curvature="0"
           d="m 463.5,450.6 c -74.6,0 -135.1,60.5 -135.1,135.1 v 14.1 h 135.1 z"
           id="path46" />
        <path
           style="fill:#ff8078"
           inkscape:connector-curvature="0"
           d="M 987.1,599.8 V 585.7 C 987.1,511.1 926.6,450.6 852,450.6 H 463.5 v 149.2 z"
           id="path48" />
        <path
           style="fill:#f06154"
           inkscape:connector-curvature="0"
           d="M 463.5,599.8 V 749 H 852 c 74.6,0 135.1,-60.5 135.1,-135.1 v -14.1 z"
           id="path50" />
      </g>
      <path
         style="fill:#ffffff"
         inkscape:connector-curvature="0"
         d="m 445.6,272.1 c 0,5.1 4.1,9.2 9.2,9.2 v 0 c 5.1,0 9.2,-4.1 9.2,-9.2 v -47.7 c 0,-5.1 -4.1,-9.2 -9.2,-9.2 v 0 c -5.1,0 -9.2,4.1 -9.2,9.2 z"
         id="path54" />
      <path
         style="fill:#ff675a"
         inkscape:connector-curvature="0"
         d="m 781.8,280.3 c 0,4.1 -3.3,7.5 -7.5,7.5 h -98.2 c -4.1,0 -7.5,-3.3 -7.5,-7.5 v 0 c 0,-4.1 3.3,-7.5 7.5,-7.5 h 98.2 c 4.2,0.1 7.5,3.4 7.5,7.5 z"
         id="path56" />
      <polygon
         style="fill:#ff8078"
         points="1163.5,470.3 1163.5,575.4 1065.9,575.4 1110.9,470.3 "
         id="polygon58" />
      <polygon
         style="fill:#ff675a"
         points="1163.5,729.3 1163.5,624.2 1065.9,624.2 1110.9,729.3 "
         id="polygon60" />
      <g
         id="g64">
        <rect
           style="fill:#808285"
           x="1026.5"
           y="594.20001"
           width="164"
           height="11.3"
           id="rect62" />
      </g>
      <path
         style="fill:#939598"
         inkscape:connector-curvature="0"
         d="m 1227,599.8 c 0,10.5 -8.5,19 -19,19 -10.5,0 -19,-8.5 -19,-19 0,-10.5 8.5,-19 19,-19 10.5,0 19,8.5 19,19 z"
         id="path66" />
      <path
         style="fill:#ffffff"
         inkscape:connector-curvature="0"
         d="m 642.3,599.8 c 0,41.2 -33.4,74.6 -74.6,74.6 -41.2,0 -74.6,-33.4 -74.6,-74.6 0,-41.2 33.4,-74.6 74.6,-74.6 41.2,0 74.6,33.4 74.6,74.6 z"
         id="path68" />
      <path
         style="fill:#829dff"
         inkscape:connector-curvature="0"
         d="m 621.8,599.8 c 0,29.9 -24.3,54.2 -54.2,54.2 -29.9,0 -54.2,-24.3 -54.2,-54.2 0,-29.9 24.3,-54.2 54.2,-54.2 30,0 54.2,24.3 54.2,54.2 z"
         id="path70" />
      <path
         style="fill:#ffffff"
         inkscape:connector-curvature="0"
         d="m 836,599.8 c 0,29.9 -24.3,54.2 -54.2,54.2 -29.9,0 -54.2,-24.3 -54.2,-54.2 0,-29.9 24.3,-54.2 54.2,-54.2 29.9,0 54.2,24.3 54.2,54.2 z"
         id="path72" />
      <path
         style="fill:#829dff"
         inkscape:connector-curvature="0"
         d="m 816.5,599.8 c 0,19.2 -15.5,34.7 -34.7,34.7 -19.2,0 -34.7,-15.5 -34.7,-34.7 0,-19.2 15.5,-34.7 34.7,-34.7 19.2,0 34.7,15.5 34.7,34.7 z"
         id="path74" />
      <path
         style="fill:#f0f0f0"
         inkscape:connector-curvature="0"
         d="m 449.9,505.3 v 79.3 h -90.6 c 0,-0.1 13.6,-79.3 90.6,-79.3 z"
         id="path76" />
      <g
         id="g82">
        <path
           style="fill:#f06154"
           inkscape:connector-curvature="0"
           d="m 832.3,359.1 c 0,-24.6 -19.9,-44.5 -44.5,-44.5 h -125 c -24.6,0 -44.5,19.9 -44.5,44.5 v 82 l 214,-12.7 z"
           id="path78" />
        <polygon
           style="fill:#e65d50"
           points="832.3,450.6 832.3,428.4 618.3,441 618.3,450.6 "
           id="polygon80" />
      </g>
      <g
         id="g88">
        <path
           style="fill:#939598"
           inkscape:connector-curvature="0"
           d="M 532.9,241.6 C 518.4,231.3 500.4,226 479,226 h -15.1 v 45 H 479 c 14.5,0 25,3.5 32.1,10.8 11.9,12.2 11.5,31.8 11.5,32.8 v 135.9 h 33.1 V 306.3 c 0,0 0.2,-35.4 -22.8,-64.7 z"
           id="path84" />
        <path
           style="fill:#808285"
           inkscape:connector-curvature="0"
           d="m 567.6,315.7 c 0.2,-3.9 0.9,-38.9 -23.8,-64.7 -3.4,-3.5 -7,-6.6 -10.9,-9.3 23,29.3 22.8,64.7 22.8,64.7 v 144.3 h 12 z"
           id="path86" />
      </g>
    </g>
  </g>
</svg>
